<?xml version="1.0" encoding="UTF-8" standalone="no"?>
<!-- Created with Inkscape (http://www.inkscape.org/) -->

<svg
   version="1.1"
   id="svg2"
   width="165.82684"
   height="201.61458"
   viewBox="0 0 165.82684 201.61458"
   sodipodi:docname="NextGenSoft.svg"
   inkscape:version="1.4 (e7c3feb1, 2024-10-09)"
   xmlns:inkscape="http://www.inkscape.org/namespaces/inkscape"
   xmlns:sodipodi="http://sodipodi.sourceforge.net/DTD/sodipodi-0.dtd"
   xmlns="http://www.w3.org/2000/svg"
   xmlns:svg="http://www.w3.org/2000/svg">
  <defs
     id="defs6">
    <clipPath
       clipPathUnits="userSpaceOnUse"
       id="clipPath16">
      <path
         d="M 0,595.276 H 841.89 V 0 H 0 Z"
         id="path14" />
    </clipPath>
    <clipPath
       clipPathUnits="userSpaceOnUse"
       id="clipPath28">
      <path
         d="m 684.634,323.203 v -3.519 h -6.492 v -11.466 h 6.492 v -33.844 h 14.358 v 33.844 h 12.453 v 11.466 h -12.453 v 2.886 c 0,3.613 2.441,5.69 5.864,5.69 v 0 c 1.083,0 2.525,-0.273 3.886,-0.721 v 0 l 3.071,11.189 c -2.889,1.266 -5.874,1.896 -8.939,1.896 v 0 c -10.925,0 -18.24,-6.771 -18.24,-17.421 m -435.426,11.643 v -36.103 l -30.595,36.103 h -12.361 v -60.472 h 14.886 v 35.022 l 30.601,-35.022 h 12.276 v 60.472 z m 471.804,-1.802 v -13.36 h -8.211 v -11.466 h 8.211 v -17.145 c 0,-11.915 6.765,-18.055 18.047,-18.055 v 0 c 5.154,0 8.855,1.449 12.373,3.342 v 0 l -3.343,11.371 c -1.89,-1.082 -4.603,-1.808 -6.589,-1.808 v 0 c -3.791,0 -6.044,1.895 -6.044,6.591 v 0 15.704 h 13.359 v 11.466 h -13.359 v 13.36 z m -338.936,0 v -13.36 h -8.206 v -11.466 h 8.206 v -17.145 c 0,-11.915 6.772,-18.055 18.059,-18.055 v 0 c 5.142,0 8.841,1.449 12.361,3.342 v 0 l -3.338,11.371 c -1.895,-1.082 -4.607,-1.808 -6.593,-1.808 v 0 c -3.791,0 -6.046,1.895 -6.046,6.591 v 0 15.704 h 13.355 v 11.466 h -13.355 v 13.36 z m 197.946,-27.352 c 0,-7.128 4.784,-11.645 13.178,-13.178 v 0 l 9.206,-1.804 c 3.337,-0.633 4.512,-1.802 4.512,-3.34 v 0 c 0,-1.989 -2.078,-3.61 -5.869,-3.61 v 0 c -3.87,0 -7.401,1.446 -8.025,5.324 v 0 l -14.085,-2.886 c 1.531,-9.299 10.647,-13.18 21.305,-13.18 v 0 c 11.906,0 20.579,5.238 20.579,15.255 v 0 c 0,6.682 -3.974,11.824 -12.544,13.628 v 0 l -10.658,2.166 c -2.883,0.632 -3.428,1.898 -3.428,3.163 v 0 c 0,1.62 1.26,3.519 5.143,3.519 v 0 c 4.425,0 7.127,-2.531 7.582,-5.326 v 0 l 13.177,2.616 c -1.804,7.855 -9.297,12.994 -20.577,12.994 v 0 c -11.464,0 -19.496,-6.045 -19.496,-15.341 m -39.357,9.66 v 4.332 h -14.439 v -45.31 h 14.439 v 21.032 c 0,8.751 3.706,12.633 9.387,12.633 v 0 c 4.608,0 7.764,-3.615 7.764,-8.936 v 0 -24.729 h 14.352 v 27.797 c 0,11.37 -7.043,18.862 -17.599,18.862 v 0 c -5.686,0 -10.471,-2.072 -13.904,-5.681 M 471.348,297.03 c 0,-14.354 10.828,-24.012 23.916,-24.012 v 0 c 10.378,0 18.592,4.607 22.474,14.174 v 0 l -12.816,2.615 c -2.429,-4.426 -6.317,-5.232 -9.658,-5.232 v 0 c -4.87,0 -8.571,3.334 -9.745,8.757 v 0 h 33.218 v 3.698 c -0.273,14.8 -10.568,24.003 -23.378,24.003 v 0 c -13.183,0 -24.011,-9.742 -24.011,-24.003 m 24.011,12.275 c 4.149,0 7.764,-2.259 9.11,-7.134 v 0 h -18.684 c 1.358,4.602 5.517,7.134 9.574,7.134 m -81.235,-10.111 c 0,-12.817 10.012,-22.204 21.833,-22.204 v 0 c 5.88,0 10.385,1.538 13.632,4.33 v 0 -1.265 c 0,-7.125 -4.694,-11.007 -11.283,-11.007 v 0 c -4.687,0 -7.218,1.533 -10.646,5.595 v 0 l -12.004,-6.494 c 4.422,-7.313 12.361,-10.923 22.748,-10.923 v 0 c 14.709,0 25.362,7.67 25.362,21.66 v 0 40.798 h -14.177 v -2.976 c -3.247,2.795 -7.752,4.325 -13.632,4.325 v 0 c -11.821,0 -21.833,-9.291 -21.833,-21.839 m 14.081,0 c 0,6.05 4.506,10.286 10.829,10.286 v 0 c 5.777,0 10.555,-4.236 10.555,-10.286 v 0 c 0,-6.047 -4.778,-10.38 -10.555,-10.38 v 0 c -6.323,0 -10.829,4.333 -10.829,10.38 M 271.591,297.03 c 0,-14.354 10.84,-24.012 23.927,-24.012 v 0 c 10.386,0 18.592,4.607 22.474,14.174 v 0 l -12.821,2.615 c -2.428,-4.426 -6.316,-5.232 -9.653,-5.232 v 0 c -4.869,0 -8.581,3.334 -9.75,8.757 v 0 h 33.212 v 3.698 c -0.273,14.8 -10.556,24.003 -23.371,24.003 v 0 c -13.178,0 -24.018,-9.742 -24.018,-24.003 m 24.018,12.275 c 4.149,0 7.764,-2.259 9.114,-7.134 v 0 h -18.689 c 1.357,4.602 5.511,7.134 9.575,7.134 M 625.248,297.03 c 0,-14.354 11.373,-23.919 25.091,-23.919 v 0 c 13.45,0 24.818,9.565 24.818,23.919 v 0 c 0,14.261 -11.368,23.826 -24.818,23.826 v 0 c -13.718,0 -25.091,-9.565 -25.091,-23.826 m 13.893,0 c 0,7.037 5.33,11.729 11.198,11.729 v 0 c 5.59,0 10.919,-4.692 10.919,-11.729 v 0 c 0,-7.135 -5.329,-11.737 -10.919,-11.737 v 0 c -5.868,0 -11.198,4.602 -11.198,11.737 m -284.051,22.745 -8.666,-14.083 -8.75,14.083 h -16.522 l 14.893,-23.469 -14.893,-21.932 h 16.522 l 8.75,13.09 8.666,-13.09 h 16.612 l -14.983,21.932 14.983,23.469 z"
         id="path26" />
    </clipPath>
    <clipPath
       clipPathUnits="userSpaceOnUse"
       id="clipPath38">
      <path
         d="M 0,595.276 H 841.89 V 0 H 0 Z"
         id="path36" />
    </clipPath>
  </defs>
  <sodipodi:namedview
     id="namedview4"
     pagecolor="#ffffff"
     bordercolor="#000000"
     borderopacity="0.25"
     inkscape:showpageshadow="2"
     inkscape:pageopacity="0.0"
     inkscape:pagecheckerboard="0"
     inkscape:deskcolor="#d1d1d1"
     inkscape:zoom="0.94074046"
     inkscape:cx="375.76783"
     inkscape:cy="96.200816"
     inkscape:window-width="1984"
     inkscape:window-height="1186"
     inkscape:window-x="57"
     inkscape:window-y="25"
     inkscape:window-maximized="0"
     inkscape:current-layer="g8" />
  <g
     id="g8"
     inkscape:groupmode="layer"
     inkscape:label="NextGenSoft"
     transform="matrix(1.3333333,0,0,-1.3333333,-95.66932,531.1422)">
    <g
       id="g32">
      <g
         id="g34"
         clip-path="url(#clipPath38)">
        <g
           id="g40"
           transform="translate(178.7021,279.0781)">
          <path
             d="m 0,0 c 0,-5.377 -4.583,-9.738 -10.238,-9.738 h -70.314 c -5.658,0 -10.238,4.361 -10.238,9.738 l -9.738,81.258 c 0,5.378 4.591,9.733 10.238,9.733 H -0.5 c 5.656,0 10.238,-4.355 10.238,-9.733 z"
             style="fill:#ec6500;fill-opacity:1;fill-rule:nonzero;stroke:none"
             id="path42" />
        </g>
        <g
           id="g44"
           transform="translate(158.2568,394.5156)">
          <path
             d="m 0,0 c 0,0 -0.61,-1.098 -1.517,-1.339 -5.91,-1.57 -28.136,-6.538 -29.467,-6.885 -1.526,-0.4 -1.79,-0.924 -1.963,-1.2 -10.891,-17.596 -11.89,-63.279 -11.181,-83.36 0.108,-2.971 1.893,-6.672 6.189,-2.398 4.719,4.696 12.035,11.418 23.059,17.942 1.427,0.845 2.017,-0.077 1.776,-0.846 -7.386,-23.188 -8.699,-48.91 -8.985,-63.018 -0.063,-2.959 3.23,-3.259 3.891,-0.144 3.847,18.234 12.565,58.877 39.849,100.616 0.936,1.436 -0.613,2.996 -2.383,2.208 -13.829,-6.166 -28.445,-17.406 -36.112,-23.445 -3.164,-2.491 -4.248,0.497 -3.637,2.73 7.465,27.289 18.154,48.115 22.632,55.248 C 5.797,1.924 0,0 0,0"
             style="fill:#ec6500;fill-opacity:1;fill-rule:nonzero;stroke:none"
             id="path46" />
        </g>
        <g
           id="g48"
           transform="translate(114.1069,370.417)">
          <path
             d="m 0,0 c -5.452,-21.125 -5.801,-52.177 -5.245,-67.945 0.108,-2.971 1.902,-6.674 6.187,-2.398 4.722,4.699 12.028,11.413 23.061,17.937 1.424,0.845 2.018,-0.074 1.773,-0.846 -7.383,-23.188 -8.476,-50.606 -8.754,-64.709 -0.062,-2.966 1.09,-3.161 1.754,-0.046 3.848,18.236 14.474,60.47 41.758,102.212 0.937,1.436 -0.616,2.999 -2.383,2.213 -13.837,-6.175 -28.444,-17.409 -36.111,-23.45 -3.165,-2.494 -4.246,0.499 -3.639,2.735 7.463,27.284 18.153,48.106 22.625,55.243 0.732,1.168 1.083,2.024 1.178,2.646 0.377,2.476 -3.321,1.247 -3.321,1.247 0,0 -29.448,-7.829 -30.984,-8.223 -1.535,-0.4 -2.02,-1.75 -2.198,-2.031 C 3.362,10.809 1.49,5.775 0,0"
             style="fill:#ffffff;fill-opacity:1;fill-rule:nonzero;stroke:none"
             id="path50" />
        </g>
        <g
           id="g52"
           transform="translate(160.707,394.749)">
          <path
             d="m 0,0 c 0,0 -3.967,0.761 -6.231,-3.496 -1.222,-2.295 -10.02,-21.079 -10.02,-21.079 h 2.641 z"
             style="fill:#ec6500;fill-opacity:1;fill-rule:nonzero;stroke:none"
             id="path54" />
        </g>
      </g>
    </g>
  </g>
</svg>
