<svg width="32" height="40" viewBox="0 0 32 40" xmlns="http://www.w3.org/2000/svg">
  <!-- Top screen -->
  <rect x="4" y="4" width="24" height="16" rx="3" fill="#2B5AA0" stroke="#1E4A8C" stroke-width="1"/>
  <rect x="6" y="6" width="20" height="12" rx="2" fill="#000"/>
  
  <!-- Cameras -->
  <circle cx="8" cy="8" r="1" fill="#333"/>
  <circle cx="24" cy="8" r="1" fill="#333"/>
  
  <!-- Bottom screen/base -->
  <rect x="4" y="20" width="24" height="16" rx="3" fill="#2B5AA0" stroke="#1E4A8C" stroke-width="1"/>
  <rect x="6" y="22" width="20" height="8" rx="2" fill="#2B2B2B" stroke="#666" stroke-width="1"/>
  <rect x="7" y="23" width="18" height="6" rx="1" fill="#000"/>
  
  <!-- Circle pad -->
  <circle cx="8" cy="33" r="2.5" fill="#333"/>
  <circle cx="8" cy="33" r="1.5" fill="#666"/>
  
  <!-- D-pad -->
  <rect x="20" y="32" width="4" height="1" rx="0.5" fill="#666"/>
  <rect x="21" y="31" width="2" height="3" rx="1" fill="#666"/>
  
  <!-- Face buttons -->
  <circle cx="22" cy="30" r="1" fill="#666"/>
  <circle cx="26" cy="30" r="1" fill="#666"/>
  <circle cx="24" cy="32" r="1" fill="#666"/>
  <circle cx="24" cy="28" r="1" fill="#666"/>
  
  <!-- Hinge -->
  <rect x="0" y="18" width="32" height="4" rx="2" fill="#1E4A8C"/>
</svg>