<svg width="32" height="48" viewBox="0 0 32 48" xmlns="http://www.w3.org/2000/svg">
  <!-- Main body -->
  <rect x="4" y="4" width="24" height="40" rx="4" fill="#C8C8C8" stroke="#999" stroke-width="1"/>
  
  <!-- Screen -->
  <rect x="8" y="10" width="16" height="14" rx="2" fill="#9BB84B" stroke="#8AA63F" stroke-width="1"/>
  <rect x="10" y="12" width="12" height="10" rx="1" fill="#8BA43E"/>
  
  <!-- Nintendo logo area -->
  <rect x="10" y="6" width="12" height="2" rx="1" fill="#666"/>
  
  <!-- D-pad -->
  <rect x="8" y="30" width="6" height="2" rx="1" fill="#666"/>
  <rect x="10" y="28" width="2" height="6" rx="1" fill="#666"/>
  
  <!-- A/B buttons -->
  <circle cx="20" cy="30" r="2" fill="#8A2BE2"/>
  <circle cx="24" cy="34" r="2" fill="#8A2BE2"/>
  
  <!-- Start/Select -->
  <ellipse cx="12" cy="38" rx="2" ry="1" fill="#666"/>
  <ellipse cx="20" cy="38" rx="2" ry="1" fill="#666"/>
  
  <!-- Speaker holes -->
  <circle cx="10" cy="42" r="0.5" fill="#666"/>
  <circle cx="12" cy="42" r="0.5" fill="#666"/>
  <circle cx="14" cy="42" r="0.5" fill="#666"/>
  <circle cx="16" cy="42" r="0.5" fill="#666"/>
  <circle cx="18" cy="42" r="0.5" fill="#666"/>
  <circle cx="20" cy="42" r="0.5" fill="#666"/>
  <circle cx="22" cy="42" r="0.5" fill="#666"/>
</svg>