<svg width="20" height="48" viewBox="0 0 20 48" xmlns="http://www.w3.org/2000/svg">
  <!-- Main body -->
  <rect x="4" y="4" width="12" height="40" rx="6" fill="#FFFFFF" stroke="#CCC" stroke-width="1"/>
  
  <!-- Disc slot -->
  <rect x="6" y="12" width="8" height="1" rx="0.5" fill="#333"/>
  
  <!-- Power button -->
  <circle cx="10" cy="8" r="2" fill="#0066CC"/>
  <circle cx="10" cy="8" r="1" fill="#004499"/>
  
  <!-- Reset button -->
  <circle cx="10" cy="16" r="1" fill="#FF4444"/>
  
  <!-- SD card slot -->
  <rect x="7" y="18" width="6" height="1" rx="0.5" fill="#666"/>
  
  <!-- USB ports -->
  <rect x="7" y="22" width="2" height="1" rx="0.5" fill="#333"/>
  <rect x="11" y="22" width="2" height="1" rx="0.5" fill="#333"/>
  
  <!-- GameCube controller ports -->
  <rect x="6" y="26" width="3" height="2" rx="1" fill="#8A2BE2"/>
  <rect x="11" y="26" width="3" height="2" rx="1" fill="#8A2BE2"/>
  <rect x="6" y="30" width="3" height="2" rx="1" fill="#8A2BE2"/>
  <rect x="11" y="30" width="3" height="2" rx="1" fill="#8A2BE2"/>
  
  <!-- Wii logo area -->
  <rect x="7" y="36" width="6" height="2" rx="1" fill="#CCC"/>
</svg>